<?xml version="1.0" encoding="UTF-8"?>
<svg width="750" height="750" xmlns="http://www.w3.org/2000/svg" xmlns:svg="http://www.w3.org/2000/svg">
 <metadata id="metadata17720">image/svg+xml</metadata>

 <g>
  <title>Layer 1</title>
  <g transform="rotate(-25, 375.002, 375)" id="svg_7">
   <g id="layer3" display="inline"/>
   <g id="layer1" display="inline">
    <g id="g22249">
     <path id="path18706" d="m213.223145,100.233261c-82.828522,55.751511 -137.767899,152.950729 -137.767899,263.556656c0,172.919678 134.165756,313.244751 299.495438,313.244751c165.329773,0 299.527222,-140.325073 299.527222,-313.244751c0,-114.147308 -58.510193,-214.065125 -145.817871,-268.827103c-19.97229,-9.625443 -109.794556,-64.748596 0,9.944275c27.871399,18.102798 52.915161,40.936356 73.368469,67.654251c50.723572,64.738831 73.04718,152.252472 61.483704,235.082764c-11.21167,85.658081 -60.05896,164.257751 -128.957336,211.31604c-67.713928,47.292175 -154.871521,61.453247 -233.511353,39.810242c-83.922546,-22.090942 -155.899902,-86.606934 -191.613739,-168.920166c-38.301941,-86.027466 -33.718872,-191.155121 10.395172,-273.799194c22.158264,-42.642792 54.815796,-78.765808 93.398254,-105.641418c109.047577,-81.635468 27.965759,-29.222855 0,-10.176315l-0.000061,-0.000031z" stroke-dashoffset="0" stroke-miterlimit="4" stroke-linejoin="round" stroke-linecap="round" stroke-width="2.748" stroke="black" fill="#000000"/>
     <path id="path17799" d="m246.619659,714.529053c0.002716,-1.153625 58.146698,-30.154297 68.560883,-34.196411c14.372772,-5.578552 38.063202,-9.592529 46.460205,-7.871948l6.103027,1.250549l-6.815491,8.157654c-3.748505,4.486694 -9.976593,10.358337 -13.840149,13.048035c-9.322876,6.490417 -32.133148,14.252075 -49.595093,16.875732c-12.301086,1.848267 -50.87616,3.923096 -50.873383,2.736389zm231.51474,-0.636414c-26.107849,-1.57666 -28.094482,-1.940674 -52.433716,-9.607666c-14.561584,-4.586975 -18.285767,-6.803955 -29.526978,-17.577454l-12.863647,-12.32843l5.680054,-1.59082c14.613159,-4.092834 61.509399,9.407715 82.048096,23.619995c3.902954,2.700745 9.331909,5.578857 12.064331,6.395813c6.227844,1.861938 23.846924,10.86853 23.846924,12.190125c0,0.541016 -1.117859,0.838501 -2.48407,0.661072c-1.366272,-0.177429 -13.215149,-0.970581 -26.330994,-1.762634zm-284.175659,-34.930725c-10.92984,-3.397034 -23.76123,-7.28949 -28.514191,-8.649902l-8.641754,-2.473572l14.603485,-2.528015c8.031891,-1.390442 23.270905,-4.30188 33.864441,-6.469849c29.540558,-6.045593 59.129456,-4.28949 78.269897,4.645325l5.116882,2.38855l-6.389282,5.715271c-16.735962,14.970398 -53.884277,18.071594 -88.309479,7.372192zm295.243896,2.353394c-14.21521,-5.237549 -27.200928,-14.3526 -23.483643,-16.483826c7.766357,-4.452881 33.679382,-9.932739 46.969604,-9.932739c12.253052,0 44.524841,5.057739 75.312073,11.803162c5.803833,1.271606 3.352539,2.392517 -22.051025,10.083496c-24.929749,7.547546 -30.967896,8.643494 -47.268127,8.579468c-13.381042,-0.052612 -21.751709,-1.202515 -29.478882,-4.049561zm-164.369537,-16.421936c-12.545288,-3.724182 -38.648376,-33.9953 -43.406921,-50.337952l-1.372559,-4.713806l8.582764,4.485901c4.72052,2.467285 14.765045,6.640259 22.321198,9.273315c25.130707,8.757141 36.688568,18.224915 43.932983,35.988403l3.069031,7.52533l-13.440582,-0.183655c-7.392273,-0.100952 -16.250977,-1.017883 -19.685913,-2.037537zm70.83078,-1.406372c0,-5.549072 14.168274,-23.645569 23.428284,-29.923828c4.086487,-2.77063 13.158997,-6.964355 20.161133,-9.319397c7.002075,-2.355042 17.137085,-6.459534 22.522278,-9.121155l9.791199,-4.839294l-1.265625,5.166687c-3.058289,12.483826 -22.432617,37.761841 -34.492065,45.002441c-6.925171,4.157959 -12.318542,5.534912 -24.511963,6.258118c-14.703247,0.872009 -15.63324,0.680237 -15.63324,-3.223572zm-125.19632,-9.999023c-21.477325,-7.848328 -36.674103,-25.617798 -44.790497,-52.37323c-2.745789,-9.051331 -5.545898,-20.408752 -6.222412,-25.238647l-1.230042,-8.781555l26.76474,27.105347c27.61911,27.97052 33.251465,36.339905 34.970367,51.964172c0.99942,9.084167 -0.824402,10.491333 -9.492157,7.323914zm201.249847,-6.698547c2.348633,-17.939819 12.541382,-31.682617 50.339966,-67.873169l12.127136,-11.611145l-1.613586,10.457703c-5.170166,33.508057 -22.24707,62.688416 -42.278931,72.244446c-5.593628,2.668396 -12.300171,4.860657 -14.90332,4.871582c-4.373413,0.018372 -4.652283,-0.596069 -3.671265,-8.089417zm-311.541809,-12.00769c-22.876129,-7.272766 -28.80014,-10.287476 -50.701416,-25.801941c-12.126465,-8.590149 -21.776108,-15.818298 -21.44371,-16.062561c3.002579,-2.206299 74.661789,5.795288 80.939133,9.037842c1.721191,0.889099 8.942139,4.517334 16.046509,8.062744c7.104431,3.545349 16.406616,9.585388 20.671539,13.42218l7.754456,6.976074l-7.132843,3.053345c-11.854309,5.074463 -32.456482,5.660583 -46.133667,1.312317zm394.752563,1.639282c-4.761719,-0.959106 -9.926331,-2.822449 -11.476807,-4.140808c-3.658081,-3.110352 -0.180481,-7.233032 14.553284,-17.252502c16.30249,-11.086365 34.709167,-16.791687 61.615601,-19.098389c34.641785,-2.969849 44.056274,-3.307312 42.987427,-1.540833c-2.281555,3.770813 -43.209778,30.36908 -52.762573,34.289246c-22.278748,9.142334 -37.391418,11.273193 -54.916931,7.743286zm-357.467438,-26.929077c-12.480438,-9.648376 -23.701202,-26.08313 -26.348236,-38.591431c-1.265381,-5.979492 -1.982239,-22.315735 -1.629791,-37.14209l0.62912,-26.467651l7.262207,14.251831c3.994141,7.838501 9.603271,17.758362 12.46463,22.044128c13.898224,20.816895 21.652557,49.028687 17.842529,64.914734l-1.798981,7.500977l-8.421478,-6.510498zm347.7164,-13.92572c1.051697,-21.957092 4.434326,-32.793518 14.952087,-47.900574c2.470825,-3.548889 8.416931,-13.977661 13.213562,-23.174988l8.72113,-16.722473l1.391602,17.115356c1.673401,20.581726 -1.124451,46.984009 -6.137207,57.91333c-3.915222,8.536438 -20.788452,27.079163 -28.477539,31.295105l-4.673767,2.562683l1.010132,-21.08844zm-423.020325,-25.098999c-6.701538,-1.518555 -15.190918,-4.35376 -18.865234,-6.300415c-11.991119,-6.352905 -32.429749,-24.485107 -41.409973,-36.737c-4.835617,-6.59729 -11.477295,-14.972717 -14.759308,-18.612c-6.731216,-7.46405 -6.334427,-7.81134 4.211578,-3.686401c4.120819,1.611816 12.517868,3.942444 18.66011,5.17926c12.829178,2.58313 35.049881,12.988464 47.552658,22.267517c9.501587,7.051697 24.294098,23.972595 28.852722,33.00415c2.711304,5.371582 2.664612,5.843811 -0.580231,5.869324c-1.940765,0.01532 -5.3172,0.421326 -7.503174,0.902222c-2.185944,0.480896 -9.457581,-0.368103 -16.159149,-1.886658zm487.632446,1.551697c-3.005737,-0.476074 -5.464905,-1.328613 -5.464905,-1.894714c0,-4.045166 12.153809,-20.717163 21.622742,-29.661011c13.074463,-12.349365 39.900024,-26.841125 55.977539,-30.240173c5.957581,-1.259583 14.75177,-3.610413 19.542664,-5.224121c10.322266,-3.476807 12.553833,-2.457397 5.291992,2.417419c-2.871582,1.927612 -8.298645,8.18512 -12.060242,13.905457c-11.624512,17.67804 -17.974548,23.740356 -42.391418,40.470825c-9.203796,6.306458 -32.25769,11.851257 -42.518372,10.226318zm-470.999725,-27.047668c-5.152924,-6.167603 -7.617615,-11.897156 -10.103119,-23.485962c-1.808167,-8.430542 -3.287537,-18.866028 -3.287537,-23.190125c0,-11.321777 7.254303,-45.79541 11.737976,-55.780701c3.773193,-8.403137 3.827454,-8.435791 4.000977,-2.410706c0.096741,3.359375 3.290466,18.934509 7.097168,34.611511c4.336121,17.8573 6.930817,33.498596 6.946869,41.876892c0.02536,13.22998 -4.388672,33.251892 -7.808014,35.416992c-0.972778,0.615967 -4.835693,-2.551086 -8.58432,-7.037903zm463.814728,2.436829c-8.048645,-20.835205 -7.741821,-34.456299 1.637695,-72.69281c3.296204,-13.437439 6.004578,-26.897095 6.018555,-29.9104c0.082947,-17.801697 8.802673,2.308899 13.968201,32.215271c4.964966,28.7453 -1.469666,62.238342 -13.743286,71.535156l-5.754211,4.358582l-2.126953,-5.505798zm-516.672791,-57.524231c-14.246399,-5.183167 -28.514008,-16.6651 -37.022537,-29.794067c-3.83783,-5.921936 -12.308105,-21.792175 -18.822815,-35.26709l-11.84494,-24.499939l9.362717,5.515137c5.14949,3.033325 14.589478,9.235474 20.977768,13.782593c6.38826,4.547119 14.751297,10.217834 18.584488,12.601746c14.388214,8.947937 30.711044,35.035767 33.632355,53.752625c1.475464,9.453186 0.834717,9.621643 -14.867035,3.908997zm564.099426,1.053528c0,-1.71582 2.8078,-10.578979 6.239502,-19.695984c7.023438,-18.659058 16.318237,-30.413696 33.272339,-42.078247c15.501221,-10.664978 40.782471,-26.710876 42.096375,-26.718384c2.09729,-0.012085 -23.945984,51.850586 -30.839294,61.413452c-8.066528,11.19043 -21.401978,21.083069 -35.574951,26.390442c-12.344849,4.622864 -15.19397,4.752014 -15.19397,0.688721zm-550.273438,-26.341492c-5.348053,-14.644409 -5.413422,-33.163391 -0.178436,-50.528015c4.257324,-14.12146 29.772369,-56.503326 29.677002,-49.295044c-0.313416,23.697266 -4.284454,71.215515 -6.570618,78.62616c-3.90094,12.644836 -9.90976,24.407288 -14.767548,28.908142c-3.930023,3.641235 -4.059082,3.519348 -8.1604,-7.711243zm543.783081,7.574402c-4.798889,-5.459351 -12.593506,-22.798584 -15.177795,-33.763062c-2.030823,-8.616333 -6.588013,-74.763916 -5.251221,-76.221741c1.486877,-1.621613 25.445801,39.005737 29.143127,49.418335c6.121643,17.239868 6.062439,41.182129 -0.134583,54.458557c-2.482727,5.31897 -4.724121,9.670898 -4.980896,9.670898c-0.256714,0 -1.876099,-1.603333 -3.598633,-3.562988zm-580.134521,-72.999634c-18.171249,-12.260071 -28.431061,-32.977417 -34.277374,-69.214996c-1.64418,-10.191193 -3.63028,-20.269226 -4.413605,-22.395691c-1.092682,-2.9664 0.24472,-2.444702 5.746185,2.241608c3.943665,3.359344 9.356064,7.658295 12.027512,9.553223c8.363617,5.932465 29.67865,38.436157 33.574509,51.198303c4.403473,14.425171 4.957397,35.957092 0.925018,35.957092c-1.487213,0 -7.599243,-3.302734 -13.582245,-7.339539zm609.151672,-7.81427c1.472046,-17.841492 6.061523,-31.259644 15.406677,-45.044464c6.990112,-10.310852 36.951599,-41.600281 39.834839,-41.600281c0.8927,0 0.741089,2.376556 -0.336792,5.281219c-1.078003,2.904724 -3.215881,13.211792 -4.750977,22.904694c-5.396973,34.076935 -16.762756,55.931732 -34.835022,66.98288c-16.094604,9.841797 -16.801636,9.448364 -15.318726,-8.524048zm-587.945862,-9.989197c-0.902634,-7.401489 -0.295395,-15.06665 1.895126,-23.922638c5.489029,-22.191315 11.578659,-32.285492 30.915421,-51.245209c9.85202,-9.659882 17.91272,-17.096161 17.91272,-16.525024c0,0.571136 -1.429932,5.791504 -3.177673,11.60083c-9.67395,32.155975 -15.72226,49.788635 -19.294434,56.249054c-5.48761,9.924835 -23.678741,34.734222 -25.468292,34.734222c-0.800079,0 -2.052368,-4.901062 -2.782867,-10.891235zm571.855469,1.053894c-16.11908,-19.585022 -24.792297,-39.506714 -39.150391,-89.925262l-1.449463,-5.089935l4.93219,5.089935c2.712769,2.799469 11.658997,11.792145 19.880493,19.983704c12.736572,12.690125 15.743713,17.058014 20.324829,29.521576c5.716675,15.55307 8.420471,38.014771 5.512634,45.796204c-1.69873,4.545837 -2.029907,4.368652 -10.050293,-5.376221zm-585.89386,-67.307526c-15.861298,-9.909302 -22.195511,-31.863922 -19.69899,-68.277252c0.850159,-12.400024 1.567795,-25.45047 1.594742,-29.000977c0.047638,-6.275818 0.237732,-6.134155 6.829514,5.089905c3.729279,6.349976 8.018692,12.950806 9.532059,14.668549c4.086945,4.638855 11.932693,23.867737 14.796692,36.26474c2.517151,10.895782 1.894714,22.340729 -2.026489,37.26001c-2.369629,9.01593 -2.762817,9.158356 -11.027527,3.995026zm600.904785,-0.731049c-1.612915,-2.909485 -2.5448,-12.38092 -2.553955,-25.958618c-0.013611,-20.028259 0.391235,-22.213074 6.41394,-34.611511c3.535767,-7.278595 10.334961,-19.407837 15.109436,-26.953827l8.680847,-13.720032l1.703796,19.827942c2.995728,34.862 0.855103,54.292145 -7.746887,70.318817c-3.526794,6.570862 -13.914124,15.678162 -17.881775,15.678162c-0.652283,0 -2.328735,-2.061401 -3.725403,-4.580933zm-581.849731,-12.841248c0,-17.214111 9.870697,-36.083313 26.917603,-51.456482c7.177246,-6.472626 42.019165,-26.811981 45.929626,-26.811981c0.586426,0 -1.753662,3.435699 -5.200195,7.634918c-3.446533,4.199158 -11.642151,15.880554 -18.212463,25.958588c-13.159698,20.185394 -26.154602,34.882111 -38.862793,43.952362c-10.122223,7.224518 -10.571777,7.255249 -10.571777,0.722595zm563.347778,-0.151428c-11.780762,-7.976074 -28.582825,-25.186493 -32.868958,-33.667664c-5.860168,-11.596008 -15.892456,-26.44046 -23.120117,-34.210144c-3.615479,-3.886597 -6.573547,-7.840515 -6.573547,-8.78653c0,-0.945984 9.001709,3.102905 20.003723,8.997559c15.683167,8.402649 22.751404,13.701569 32.724915,24.533325c12.678772,13.769714 15.520569,19.77182 19.826172,41.874329c1.56073,8.011993 0.229553,8.179749 -9.992188,1.259125zm-560.735535,-68.327148c-12.868561,-22.345428 -12.370575,-36.867706 2.843262,-82.913879l5.661392,-17.134766l6.718002,20.879425c5.293488,16.451996 6.713074,24.186737 6.694672,36.476501c-0.025635,17.113586 -5.401917,34.93689 -13.418732,44.485504l-4.428497,5.274689l-4.070099,-7.067474zm560.42572,4.161957c-1.190369,-1.514709 -4.729492,-7.79303 -7.864868,-13.951843c-5.301331,-10.413757 -5.691589,-12.766022 -5.573181,-33.593536c0.113586,-19.987579 0.788086,-24.147003 6.272827,-38.683441c3.712585,-9.839447 6.604248,-15.078705 7.304077,-13.233826c8.706299,22.951202 17.020569,53.914368 17.063965,63.547729c0.038757,8.602692 -6.445557,27.796814 -11.58905,34.304474c-2.823547,3.572449 -3.842285,3.864685 -5.61377,1.610443zm-540.028259,-12.424866c6.844025,-22.112152 35.125122,-43.244629 68.738037,-51.363037c19.757324,-4.771912 21.148926,-4.032196 9.411926,5.003052c-5.788727,4.456238 -13.703278,11.148865 -17.587891,14.872589c-16.63678,15.94754 -49.100769,35.997406 -58.368317,36.048431c-2.843018,0.015686 -3.309875,-0.954926 -2.193756,-4.561035zm518.707947,3.117737c-7.073425,-1.853882 -27.981201,-14.692902 -38.945251,-23.915375c-6.011414,-5.05658 -17.363159,-14.445557 -25.226135,-20.864441c-7.862976,-6.418884 -13.992126,-11.982391 -13.620239,-12.363373c1.875427,-1.921387 26.934753,4.662933 41.467041,10.895416c18.634521,7.991852 33.913269,21.065277 40.813538,34.922485c6.303711,12.659363 5.76709,14.013336 -4.488953,11.325287zm-501.584351,-66.232849c-3.006836,-14.19635 -1.24231,-31.277313 4.437073,-42.951569c2.807526,-5.770996 10.84436,-17.622772 17.85968,-26.337372l12.755066,-15.844742l1.389038,13.288589c3.046661,29.147095 -3.928711,53.385132 -20.090027,69.809143c-5.784882,5.878876 -11.417969,10.688812 -12.518005,10.688812c-1.100037,0 -2.824829,-3.893799 -3.832825,-8.652863l0,0zm478.020752,-0.328278c-5.575256,-5.268036 -11.681702,-13.827484 -14.872681,-20.847015c-4.843994,-10.656006 -5.488037,-14.694458 -6.120422,-38.376862l-0.706726,-26.467636l7.630371,8.976501c22.119019,26.021164 28.133972,37.251999 29.786438,55.615952c1.099609,12.220032 -1.782837,30.10553 -4.844299,30.058502c-0.777588,-0.011932 -5.670288,-4.043671 -10.872681,-8.959442zm-448.313965,-7.444305c16.979034,-16.459381 33.980286,-22.282532 64.893402,-22.226807c21.85025,0.039368 25.727264,2.156708 12.928833,7.060669c-5.251923,2.01239 -16.703033,7.285187 -25.446899,11.717377c-17.419952,8.830017 -35.905426,13.67627 -52.375336,13.730988l-10.64328,0.035339l10.64328,-10.317566zm410.078979,7.424011c-6.557861,-1.37204 -20.418884,-6.647583 -30.802307,-11.72348c-10.383301,-5.075867 -22.223145,-10.45755 -26.310791,-11.95929c-10.707031,-3.933563 -5.690063,-5.931213 14.988647,-5.968048c31.77002,-0.05661 51.913391,7.341919 68.845276,25.286407l6.848328,7.257965l-10.822815,-0.199463c-5.952637,-0.109711 -16.188477,-1.322052 -22.746338,-2.694092zm-355.241547,-41.815125c-4.110779,-0.816742 -8.038788,-2.063538 -8.728973,-2.770599c-2.253876,-2.309143 3.210693,-6.955353 13.781616,-11.717834c15.871277,-7.150406 40.567108,-6.702209 63.529144,1.153015c9.563629,3.271667 17.388397,6.67572 17.388397,7.564636c0,0.888855 -3.353485,1.623718 -7.452148,1.633057c-4.098694,0.009277 -17.289032,1.365662 -29.311859,3.014191c-23.329254,3.198822 -37.170502,3.514832 -49.206177,1.123535zm281.713531,-0.041412c-6.557861,-0.913696 -19.344604,-2.351532 -28.415039,-3.195251c-9.070313,-0.843689 -15.777283,-2.249939 -14.904297,-3.125031c3.35614,-3.364105 32.09082,-11.899994 44.413757,-13.193481c14.916199,-1.565689 34.526794,2.659988 43.825195,9.443359c6.623901,4.832306 7.176453,6.997894 2.277466,8.926666c-5.68103,2.236603 -34.364075,2.931671 -47.197083,1.143738zm-309.884766,-7.381592c-4.350861,-17.760315 8.678711,-39.785553 33.843475,-57.209015c6.455963,-4.469894 13.656158,-9.163147 16.000397,-10.429428l4.26239,-2.302307l-3.543701,14.114548c-4.98645,19.860748 -10.588379,30.671219 -22.105621,42.658447c-8.154114,8.486877 -22.37085,18.472076 -26.30014,18.472076c-0.471558,0 -1.442078,-2.386963 -2.156799,-5.304321zm368.305359,1.242859c-9.339233,-5.050171 -27.282898,-25.232956 -31.884644,-35.86348c-3.801697,-8.782257 -10.432556,-33.264786 -9.30658,-34.361862c0.360718,-0.35141 7.139404,3.661682 15.063782,8.918015c16.032959,10.634811 33.312256,30.016235 36.491089,40.930298c2.417969,8.301636 1.669678,22.847 -1.218018,23.676834c-1.092957,0.314087 -5.208496,-1.170837 -9.14563,-3.299805zm-304.757233,-37.166946c4.144684,-19.718033 14.402954,-27.829773 45.625153,-36.078018c7.650879,-2.021225 15.56604,-4.369537 17.589233,-5.218445c6.977295,-2.927719 -2.071167,10.834106 -17.551605,26.694138c-14.871063,15.235718 -26.515564,21.219223 -41.294708,21.219223c-5.457703,0 -5.686188,-0.346054 -4.368073,-6.616898zm231.567596,3.264053c-4.843933,-1.737122 -12.342896,-6.045273 -16.664185,-9.573669c-7.370728,-6.018204 -29.696899,-34.047531 -28.277832,-35.501404c0.357056,-0.365738 4.995483,0.71431 10.307617,2.400085c5.312256,1.685791 15.345581,4.715057 22.296326,6.731705c19.353943,5.61528 34.062439,20.79715 34.062439,35.158798c0,3.330368 -1.259644,4.118378 -6.458496,4.040146c-3.552246,-0.053467 -10.421814,-1.518494 -15.265869,-3.255661z" stroke-width="1.015004" stroke="black" fill="#000000"/>
    </g>
   </g>
   <text transform="matrix(17.0202, 0, 0, 17.0202, -3144.4, -6581.36)" xml:space="preserve" text-anchor="middle" font-family="serif" font-size="24" id="svg_1" y="415.40811" x="206.897742" stroke-width="0" stroke="#000000" fill="#000000">IR</text>
   <text transform="matrix(1.88945, 0, 0, 1.88945, -198.873, -252.64)" xml:space="preserve" text-anchor="middle" font-family="Serif" font-size="24" id="svg_2" y="240.385084" x="303.756278" stroke-linecap="null" stroke-linejoin="null" stroke-dasharray="null" stroke-width="0" stroke="#000000" fill="#000000">Idle Royale</text>
   <text id="svg_4" transform="matrix(1.88945, 0, 0, 1.88945, -198.873, -252.64)" xml:space="preserve" text-anchor="middle" font-family="Serif" font-size="24" y="419.861169" x="303.622974" stroke-linecap="null" stroke-linejoin="null" stroke-dasharray="null" stroke-width="0" stroke="#000000" fill="#000000">Competitive</text>
   <text id="svg_5" transform="matrix(1.88945, 0, 0, 1.88945, -198.873, -252.64)" xml:space="preserve" text-anchor="middle" font-family="Serif" font-size="24" y="446.206266" x="303.756269" stroke-linecap="null" stroke-linejoin="null" stroke-dasharray="null" stroke-width="0" stroke="#000000" fill="#000000">Idle</text>
  </g>
 </g>
</svg>